<svg width="17" height="17" viewBox="0 0 17 17" fill="none" xmlns="http://www.w3.org/2000/svg">
    <path d="M14.5195 1.92432H14.0224V14.1364C14.0224 14.9477 13.362 15.6081 12.5508 15.6081H7.51429H3.50928V16.0608C3.50928 16.5792 3.93002 16.9999 4.4484 16.9999H9.48307H14.5177C15.0361 16.9999 15.4568 16.5792 15.4568 16.0608V2.86344C15.4569 2.34506 15.0379 1.92432 14.5195 1.92432Z" fill="#38C0FB"/>
    <path d="M7.5145 15.0756H12.5492C13.0676 15.0756 13.4883 14.6549 13.4883 14.1365V1.92439V0.939119C13.4883 0.420739 13.0676 0 12.5492 0H7.5145H5.84042V0.310672C5.84395 0.342627 5.84574 0.376358 5.84574 0.410088V2.45698V2.98246C5.84574 3.71209 5.2528 4.30503 4.52316 4.30503H3.99768H1.95079C1.92416 4.30503 1.89576 4.30326 1.86913 4.30148H1.54248V14.1365C1.54248 14.6549 1.96322 15.0756 2.4816 15.0756H3.51126H7.5145ZM7.70445 11.8837H4.42197C4.17699 11.8837 3.97815 11.6848 3.97815 11.4398C3.97815 11.1948 4.17699 10.996 4.42197 10.996H7.70623C7.95122 10.996 8.15005 11.1948 8.15005 11.4398C8.15005 11.6848 7.94944 11.8837 7.70445 11.8837ZM10.9887 9.61844H4.42197C4.17699 9.61844 3.97815 9.41959 3.97815 9.17462C3.97815 8.92962 4.17699 8.7308 4.42197 8.7308H10.9887C11.2337 8.7308 11.4325 8.92962 11.4325 9.17462C11.4325 9.41959 11.2337 9.61844 10.9887 9.61844ZM4.42197 6.32529H10.9887C11.2337 6.32529 11.4325 6.52412 11.4325 6.76911C11.4325 7.0141 11.2337 7.21293 10.9887 7.21293H4.42197C4.17699 7.21293 3.97815 7.0141 3.97815 6.76911C3.97815 6.52412 4.17699 6.32529 4.42197 6.32529Z" fill="#A070DC"/>
    <path d="M1.95056 3.77192H4.52293C4.5247 3.77192 4.52825 3.77192 4.53003 3.77192C4.95964 3.76837 5.3076 3.42042 5.31115 2.9908C5.31115 2.98903 5.31115 2.98548 5.31115 2.9837V0.409557C5.31115 0.171671 5.11587 0.0136719 4.9135 0.0136719C4.81586 0.0136719 4.71822 0.0491773 4.63656 0.13084L1.67006 3.09732C1.42152 3.34586 1.59728 3.77192 1.95056 3.77192Z" fill="#38C0FB"/>
</svg>
