<svg width="41" height="41" viewBox="0 0 41 41" fill="none" xmlns="http://www.w3.org/2000/svg">
    <path d="M35.019 4.64111H33.8201V34.0938C33.8201 36.0505 32.2274 37.6432 30.2708 37.6432H18.124H8.46484V38.7349C8.46484 39.9852 9.47957 40.9999 10.7298 40.9999H22.8722H35.0147C36.2649 40.9999 37.2796 39.9852 37.2796 38.7349V6.90605C37.2796 5.65584 36.2692 4.64111 35.019 4.64111Z" fill="#38C0FB"/>
    <path d="M18.1238 36.3588H30.2663C31.5165 36.3588 32.5312 35.3441 32.5312 34.0939V4.64119V2.26493C32.5312 1.01472 31.5165 0 30.2663 0H18.1238H14.0863V0.749269C14.0948 0.826337 14.0992 0.907686 14.0992 0.989035V5.92565V7.19298C14.0992 8.95269 12.6691 10.3827 10.9094 10.3827H9.64207H4.70546C4.64123 10.3827 4.57273 10.3784 4.50851 10.3742H3.7207V34.0939C3.7207 35.3441 4.73543 36.3588 5.98564 36.3588H8.46893H18.1238ZM18.5819 28.6606H10.6654C10.0745 28.6606 9.59498 28.181 9.59498 27.5902C9.59498 26.9993 10.0745 26.5198 10.6654 26.5198H18.5862C19.1771 26.5198 19.6566 26.9993 19.6566 27.5902C19.6566 28.181 19.1728 28.6606 18.5819 28.6606ZM26.5028 23.1974H10.6654C10.0745 23.1974 9.59498 22.7178 9.59498 22.127C9.59498 21.5361 10.0745 21.0566 10.6654 21.0566H26.5028C27.0936 21.0566 27.5732 21.5361 27.5732 22.127C27.5732 22.7178 27.0936 23.1974 26.5028 23.1974ZM10.6654 15.2551H26.5028C27.0936 15.2551 27.5732 15.7346 27.5732 16.3255C27.5732 16.9164 27.0936 17.3959 26.5028 17.3959H10.6654C10.0745 17.3959 9.59498 16.9164 9.59498 16.3255C9.59498 15.7346 10.0745 15.2551 10.6654 15.2551Z" fill="#550CB1"/>
    <path d="M4.70466 9.09722H10.9086C10.9129 9.09722 10.9215 9.09722 10.9257 9.09722C11.9619 9.08865 12.801 8.24947 12.8096 7.21334C12.8096 7.20906 12.8096 7.2005 12.8096 7.19622V0.987986C12.8096 0.41426 12.3386 0.0332031 11.8506 0.0332031C11.6151 0.0332031 11.3796 0.118834 11.1827 0.315785L4.02817 7.47023C3.42876 8.06965 3.85263 9.09722 4.70466 9.09722Z" fill="#38C0FB"/>
</svg>
